<?xml version="1.0" encoding="iso-8859-1"?>
<!-- Generator: Adobe Illustrator 16.0.0, SVG Export Plug-In . SVG Version: 6.00 Build 0)  -->
<!DOCTYPE svg PUBLIC "-//W3C//DTD SVG 1.1//EN" "http://www.w3.org/Graphics/SVG/1.1/DTD/svg11.dtd">
<svg version="1.1" id="Capa_1" xmlns="http://www.w3.org/2000/svg" xmlns:xlink="http://www.w3.org/1999/xlink" x="0px" y="0px"
	 width="31.316px" height="31.316px" viewBox="0 0 31.316 31.316" style="enable-background:new 0 0 31.316 31.316;"
	 xml:space="preserve">
<g>
	<path d="M30.715,28.98c0.028-1.008-3.312-6.271-3.304-8.412c0.006-1.867,0.006-3.83,0.006-5.311c0-5.277-3.396-9.751-8.114-11.389
		C19.246,1.728,17.496,0,15.341,0c-2.158,0-3.911,1.732-3.962,3.878C6.672,5.523,3.29,9.989,3.29,15.257
		c0,1.565-0.011,3.661-0.024,5.61c-0.013,2.031-2.659,7.156-2.665,8.111h17.434c0.483,1.359,1.769,2.338,3.293,2.338
		c1.523,0,2.81-0.979,3.291-2.338h6.097V28.98z M15.342,1.943c0.905,0,1.665,0.599,1.927,1.418c-0.625-0.1-1.261-0.166-1.914-0.166
		c-0.662,0-1.307,0.067-1.939,0.17C13.675,2.544,14.435,1.943,15.342,1.943z M15.354,6.195c4.998,0,9.063,4.066,9.063,9.063
		c0,0.643,0,1.387-0.002,2.163H6.285c0.003-0.774,0.005-1.519,0.005-2.163C6.29,10.261,10.356,6.195,15.354,6.195z M6.266,20.89
		c0.003-0.483,0.006-0.978,0.009-1.469h18.138c0,0.38-0.002,0.761-0.002,1.137c-0.006,1.507,0.676,3.247,1.709,5.423H4.899
		C5.716,23.902,6.257,22.253,6.266,20.89z"/>
</g>
<g>
</g>
<g>
</g>
<g>
</g>
<g>
</g>
<g>
</g>
<g>
</g>
<g>
</g>
<g>
</g>
<g>
</g>
<g>
</g>
<g>
</g>
<g>
</g>
<g>
</g>
<g>
</g>
<g>
</g>
</svg>
