<?xml version="1.0" encoding="iso-8859-1"?>
<!-- Generator: Adobe Illustrator 19.0.0, SVG Export Plug-In . SVG Version: 6.00 Build 0)  -->
<svg version="1.1" id="Layer_1" xmlns="http://www.w3.org/2000/svg" xmlns:xlink="http://www.w3.org/1999/xlink" x="0px" y="0px"
	 viewBox="0 0 512 512" style="enable-background:new 0 0 512 512;" xml:space="preserve">
<g>
	<g>
		<path d="M490.667,320h-30.169c5.754-20.345,8.836-41.812,8.836-64s-3.082-43.655-8.836-64h30.169
			c11.782,0,21.333-9.551,21.333-21.333c0-11.782-9.551-21.333-21.333-21.333h-46.922c-38.841-75.983-117.882-128-209.078-128
			C105.061,21.333,0,126.394,0,256s105.061,234.667,234.667,234.667c91.196,0,170.237-52.017,209.078-128h46.922
			c11.782,0,21.333-9.551,21.333-21.333C512,329.551,502.449,320,490.667,320z M234.667,448c-106.042,0-192-85.958-192-192
			s85.958-192,192-192c66.57,0,125.218,33.88,159.66,85.333h-65.49l6.248-6.248c8.331-8.331,8.331-21.839,0-30.17
			s-21.839-8.331-30.17,0l-42.667,42.667c-0.497,0.497-0.967,1.02-1.413,1.564c-0.202,0.246-0.378,0.506-0.567,0.759
			c-0.228,0.304-0.463,0.601-0.675,0.918c-0.203,0.303-0.379,0.618-0.565,0.929c-0.171,0.286-0.351,0.566-0.509,0.861
			c-0.17,0.317-0.314,0.644-0.466,0.968c-0.145,0.307-0.298,0.609-0.429,0.924c-0.13,0.315-0.236,0.637-0.35,0.957
			c-0.121,0.337-0.25,0.669-0.354,1.013c-0.097,0.32-0.168,0.646-0.249,0.969c-0.089,0.351-0.187,0.698-0.258,1.055
			c-0.074,0.375-0.119,0.753-0.173,1.13c-0.044,0.311-0.104,0.617-0.135,0.932c-0.069,0.7-0.106,1.403-0.106,2.105l0,0
			c0,0,0,0.001,0,0.001c0,0.702,0.037,1.405,0.106,2.104c0.031,0.316,0.09,0.622,0.135,0.933c0.054,0.377,0.098,0.755,0.172,1.13
			c0.071,0.358,0.169,0.705,0.258,1.056c0.081,0.323,0.152,0.648,0.249,0.968c0.104,0.345,0.234,0.678,0.355,1.015
			c0.115,0.319,0.22,0.641,0.35,0.956c0.131,0.315,0.284,0.618,0.43,0.925c0.152,0.323,0.296,0.65,0.466,0.967
			c0.158,0.295,0.338,0.575,0.509,0.862c0.185,0.311,0.361,0.625,0.564,0.928c0.212,0.317,0.448,0.615,0.676,0.92
			c0.189,0.252,0.364,0.511,0.566,0.757c0.446,0.544,0.916,1.067,1.413,1.564l42.667,42.667c8.331,8.331,21.839,8.331,30.17,0
			s8.331-21.839,0-30.17L328.837,192h86.891c7.076,20.019,10.94,41.557,10.94,64s-3.863,43.981-10.94,64h-86.891l6.248-6.248
			c8.331-8.331,8.331-21.839,0-30.17s-21.839-8.331-30.17,0l-42.667,42.667c-0.497,0.497-0.967,1.02-1.413,1.564
			c-0.202,0.246-0.377,0.505-0.566,0.757c-0.228,0.305-0.464,0.603-0.676,0.92c-0.203,0.303-0.378,0.617-0.564,0.928
			c-0.171,0.286-0.351,0.567-0.509,0.862c-0.17,0.317-0.313,0.643-0.466,0.967c-0.145,0.307-0.299,0.61-0.43,0.925
			c-0.13,0.315-0.235,0.636-0.35,0.956c-0.121,0.337-0.25,0.67-0.355,1.015c-0.097,0.32-0.168,0.645-0.249,0.968
			c-0.089,0.351-0.187,0.698-0.258,1.056c-0.074,0.375-0.118,0.753-0.172,1.13c-0.044,0.311-0.104,0.618-0.135,0.933
			c-0.138,1.4-0.138,2.811,0,4.211c0.031,0.315,0.09,0.621,0.135,0.932c0.054,0.378,0.098,0.756,0.173,1.13
			c0.071,0.358,0.169,0.704,0.258,1.055c0.081,0.324,0.152,0.649,0.249,0.969c0.104,0.344,0.233,0.677,0.354,1.013
			c0.115,0.32,0.22,0.642,0.35,0.957c0.131,0.315,0.284,0.617,0.429,0.924c0.153,0.324,0.296,0.65,0.466,0.968
			c0.158,0.295,0.338,0.575,0.509,0.861c0.186,0.311,0.362,0.626,0.565,0.929c0.212,0.316,0.447,0.614,0.675,0.918
			c0.19,0.253,0.365,0.512,0.567,0.759c0.446,0.544,0.916,1.067,1.413,1.564l42.667,42.667c8.331,8.331,21.839,8.331,30.17,0
			c8.331-8.331,8.331-21.839,0-30.17l-6.248-6.248h65.49C359.884,414.12,301.236,448,234.667,448z"/>
	</g>
</g>
<g>
</g>
<g>
</g>
<g>
</g>
<g>
</g>
<g>
</g>
<g>
</g>
<g>
</g>
<g>
</g>
<g>
</g>
<g>
</g>
<g>
</g>
<g>
</g>
<g>
</g>
<g>
</g>
<g>
</g>
</svg>
