<svg id="a0bb3b34-ad2b-44bc-b62b-936ef8b3b9e7" data-name="Layer 1" xmlns="http://www.w3.org/2000/svg" width="865.76" height="682.89" viewBox="0 0 865.76 682.89"><path d="M364.56,572.48S157.83,623.38,99,414.34c0,0-47.42-89.07,51.21-170.87,0,0,185.86-147.24,214.31-172.69,0,0,62.59-56.35,157.42-27.27,0,0,91.4,1.46,143.14,68.5a114.32,114.32,0,0,1,17.79,34.36C686.74,158,699.52,181.66,742,216.2c0,0,136.55,118.16-39.83,287.21C702.16,503.41,618.71,621.56,364.56,572.48Z" fill="#da5553"/><path d="M364.56,572.48S157.83,623.38,99,414.34c0,0-47.42-89.07,51.21-170.87,0,0,185.86-147.24,214.31-172.69,0,0,62.59-56.35,157.42-27.27,0,0,91.4,1.46,143.14,68.5a114.32,114.32,0,0,1,17.79,34.36C686.74,158,699.52,181.66,742,216.2c0,0,136.55,118.16-39.83,287.21C702.16,503.41,618.71,621.56,364.56,572.48Z" fill="#fff" opacity="0.7"/><rect x="268.59" y="27.68" width="261.1" height="555.99" rx="13.84" fill="#363f56"/><path d="M516.38,53.79V560.64a12.79,12.79,0,0,1-12.79,12.79H296.76A12.8,12.8,0,0,1,284,560.64V53.79A12.81,12.81,0,0,1,296.76,41H503.59A12.8,12.8,0,0,1,516.38,53.79Z" fill="#fff"/><path d="M516.38,53.79V64.37H284V53.79A12.81,12.81,0,0,1,296.76,41H503.59A12.8,12.8,0,0,1,516.38,53.79Z" fill="#da5553"/><line x1="335.81" y1="97.18" x2="491.83" y2="97.18" fill="none" stroke="#d1d3d4" stroke-miterlimit="10"/><line x1="308.59" y1="109.33" x2="491.83" y2="109.33" fill="none" stroke="#d1d3d4" stroke-miterlimit="10"/><line x1="308.59" y1="121.48" x2="491.83" y2="121.48" fill="none" stroke="#d1d3d4" stroke-miterlimit="10"/><line x1="309.81" y1="131.93" x2="457.15" y2="131.93" fill="none" stroke="#d1d3d4" stroke-miterlimit="10"/><circle cx="465.89" cy="132.71" r="2.02" fill="#d1d3d4"/><circle cx="477.17" cy="132.71" r="2.02" fill="#d1d3d4"/><circle cx="487.65" cy="132.71" r="2.02" fill="#d1d3d4"/><line x1="308.59" y1="146.27" x2="491.83" y2="146.27" fill="none" stroke="#d1d3d4" stroke-miterlimit="10"/><line x1="308.59" y1="158.42" x2="491.83" y2="158.42" fill="none" stroke="#d1d3d4" stroke-miterlimit="10"/><line x1="309.81" y1="168.87" x2="457.15" y2="168.87" fill="none" stroke="#d1d3d4" stroke-miterlimit="10"/><circle cx="465.89" cy="169.65" r="2.02" fill="#d1d3d4"/><circle cx="477.17" cy="169.65" r="2.02" fill="#d1d3d4"/><circle cx="487.65" cy="169.65" r="2.02" fill="#d1d3d4"/><line x1="334.74" y1="396.83" x2="490.77" y2="396.83" fill="none" stroke="#d1d3d4" stroke-miterlimit="10"/><line x1="307.52" y1="408.98" x2="490.77" y2="408.98" fill="none" stroke="#d1d3d4" stroke-miterlimit="10"/><line x1="307.52" y1="421.14" x2="490.77" y2="421.14" fill="none" stroke="#d1d3d4" stroke-miterlimit="10"/><line x1="308.74" y1="431.59" x2="456.08" y2="431.59" fill="none" stroke="#d1d3d4" stroke-miterlimit="10"/><circle cx="464.82" cy="432.36" r="2.02" fill="#d1d3d4"/><circle cx="476.1" cy="432.36" r="2.02" fill="#d1d3d4"/><circle cx="486.58" cy="432.36" r="2.02" fill="#d1d3d4"/><line x1="335.76" y1="463.13" x2="491.79" y2="463.13" fill="none" stroke="#d1d3d4" stroke-miterlimit="10"/><line x1="308.54" y1="475.28" x2="491.79" y2="475.28" fill="none" stroke="#d1d3d4" stroke-miterlimit="10"/><line x1="308.54" y1="487.43" x2="491.79" y2="487.43" fill="none" stroke="#d1d3d4" stroke-miterlimit="10"/><line x1="309.76" y1="497.89" x2="457.11" y2="497.89" fill="none" stroke="#d1d3d4" stroke-miterlimit="10"/><circle cx="465.84" cy="498.66" r="2.02" fill="#d1d3d4"/><circle cx="477.13" cy="498.66" r="2.02" fill="#d1d3d4"/><circle cx="487.61" cy="498.66" r="2.02" fill="#d1d3d4"/><circle cx="399.48" cy="563.32" r="4.05" fill="none" stroke="#ed1c24" stroke-miterlimit="10"/><polygon points="431.22 567.37 435.48 559.28 439.74 567.37 431.22 567.37" fill="none" stroke="#ed1c24" stroke-miterlimit="10"/><path d="M516.38,552.14v8.5a12.79,12.79,0,0,1-12.79,12.79H296.76A12.8,12.8,0,0,1,284,560.64v-8.5Z" fill="#da5553"/><path d="M550.26,227.09H329.78a25.25,25.25,0,0,0-25.25,25.25V328.8a25.25,25.25,0,0,0,25.25,25.25H492.59L520.91,380V354.05h29.35a25.26,25.26,0,0,0,25.26-25.25V252.34A25.26,25.26,0,0,0,550.26,227.09Z" fill="#da5553"/><path d="M550.26,227.09H329.78a25.25,25.25,0,0,0-25.25,25.25V328.8a25.25,25.25,0,0,0,25.25,25.25H492.59L520.91,380V354.05h29.35a25.26,25.26,0,0,0,25.26-25.25V252.34A25.26,25.26,0,0,0,550.26,227.09Z" fill="#fff" opacity="0.4"/><text transform="translate(324.98 306.05)" font-size="52.74" fill="#fff" font-family="MyriadPro-Regular, Myriad Pro">BONJOUR!</text><rect x="238.11" y="193.9" width="182.48" height="56.38" rx="11.21" fill="#da5553"/><polygon points="272.57 269.69 272.57 245.63 297.67 245.63 272.57 269.69" fill="#da5553"/><path d="M275.25,208.23v11.51h13.31V208.23h3.59v27.52h-3.59V222.84H275.25v12.91H271.7V208.23Z" fill="#fff"/><path d="M312.57,222.84h-10.7v9.93h11.92v3H298.32V208.23h14.86v3H301.87v8.7h10.7Z" fill="#fff"/><path d="M318.4,208.23H322v24.54h11.76v3H318.4Z" fill="#fff"/><path d="M337.67,208.23h3.56v24.54H353v3H337.67Z" fill="#fff"/><path d="M378.87,221.7c0,9.47-5.76,14.5-12.78,14.5-7.27,0-12.37-5.64-12.37-14,0-8.74,5.43-14.45,12.78-14.45C374,207.78,378.87,213.54,378.87,221.7Zm-21.35.45c0,5.88,3.18,11.15,8.77,11.15s8.82-5.19,8.82-11.44c0-5.47-2.85-11.18-8.78-11.18S357.52,216.11,357.52,222.15Z" fill="#fff"/><path d="M382.67,233.67a2.4,2.4,0,0,1,2.4-2.54,2.54,2.54,0,0,1,0,5.07A2.4,2.4,0,0,1,382.67,233.67Zm1-5.84-.57-19.6H387l-.57,19.6Z" fill="#fff"/><path d="M104.2,610.61s-15.47,9.49-7.7,21.14c1.72,2.58,10.39,23.3,30,8.22Z" fill="#363f56"/><path d="M139.15,528l-9.33,15.12L90.39,575.61s23.8,26.64,64.34,34.13c0,0,16.18-3.86,43.38-4.41,40-.8,73.63,15,131.36-47.2l-71.76-13-4-8.76-23.9-11.5Z" fill="#363f56"/><path d="M139.15,528l-9.33,15.12L90.39,575.61s23.8,26.64,64.34,34.13c0,0,16.18-3.86,43.38-4.41,40-.8,73.63,15,131.36-47.2l-71.76-13-4-8.76-23.9-11.5Z" opacity="0.4"/><polygon points="146.68 602.59 156.54 597.5 168.33 614.39 157.5 619.98 146.68 602.59" fill="#f9b499"/><path d="M106.37,609.74S97.15,611,104,625.32c0,0,5,14,17.75,15.53a8,8,0,0,0,4.7-.88L156.11,624s8.58-3.92,1.4-7.21c0,0,4.18-.79,0-7.08,0,0-3.25-10.15-6.5-6.5,0,0,.77-7.82-8.41-3.65C142.6,599.59,118.8,607.24,106.37,609.74Z" fill="#da5553"/><path d="M239,605.6A16.45,16.45,0,0,1,227.39,618l-124-36.61C77.45,571.25,66.84,559.78,63,550.25a25.1,25.1,0,0,1-1.66-13,19.77,19.77,0,0,1,6.06-11.52,26,26,0,0,1,17.21-7.21c17.68-.82,38,13.11,49.82,22.67,1.52,1.22,3.06,2.43,4.62,3.61a174.9,174.9,0,0,0,27.9,17.3c29,14.35,72.47,33.63,72.47,33.63A27.65,27.65,0,0,1,239,605.6Z" fill="#363f56"/><path d="M168.31,615.73l117.37-33s60.44-16.48,48.45-48.95c0,0-10.49-45.39-76.42,11.27l-103,51.51S155.82,611.74,168.31,615.73Z" fill="#363f56"/><path d="M168.31,615.73l117.37-33s60.44-16.48,48.45-48.95c0,0-10.49-45.39-76.42,11.27l-103,51.51S155.82,611.74,168.31,615.73Z" fill="#363f56"/><path d="M168.31,615.73l117.37-33s60.44-16.48,48.45-48.95c0,0-10.49-45.39-76.42,11.27l-103,51.51S155.82,611.74,168.31,615.73Z" opacity="0.2"/><path d="M306.16,511.34a42.39,42.39,0,0,1-2.5,9c-3.93,9.33-10,10-12.85,9.75a26.83,26.83,0,0,0-4-.08c-27.75,1.81-28.59-29-28.59-32.8v-.37a1.29,1.29,0,0,0-2.16.94v30.5c-2.38,18.18-17,18-26.92,15.66h0c-.67-.16-1.32-.33-1.94-.51a26.24,26.24,0,0,0-15.78.56c-14.32,5.06-22.59,5.77-22.59,5.77q-2.64,0-5.13-.21c-40.63-2.4-50.12-21.77-50.12-21.77-31.41,16.31-41.73,2.44-45.07-7a28.42,28.42,0,0,1-1.58-7c-3-56.44,24-89.4,24-89.4,33-37.46,59.76-36.95,59.76-36.95l9.4,6.81,32.14,6.33L222.53,392c47.23,17.12,69.65,74.59,69.65,74.59,1.88,5.1,4.2,12.24,5.86,17.48a62.64,62.64,0,0,0,4.29,10.46C307.49,504.3,306.16,511.34,306.16,511.34Z" fill="#da5553"/><path d="M303.66,520.38c-3.93,9.33-10,10-12.85,9.75a26.83,26.83,0,0,0-4-.08c-27.75,1.81-28.59-29-28.59-32.8v-.37a1.29,1.29,0,0,0-2.16.94v30.5c-2.38,18.18-17,18-26.92,15.66,18.93-.51,17.83-15.49,17.83-15.49l-5.61-61.93c-1.2-7.66-15.77-7.32-15.77-7.32,8.87-7.61,1.41-22.57,1.41-22.57l.26-5.24,4.16,2.17c.76,5,4.86,6.6,7.59,7.1a2,2,0,0,0,2.35-2.11h0c2.26,3,11.76,7.16,11.2,7l1.18,6.66c4.85,1,12.81-3,12.81-3l17.31,45.95c8.33,21.64,19.79,25.17,19.79,25.17Z" opacity="0.2"/><path d="M127.35,375A213,213,0,0,1,131,343.76,146.81,146.81,0,0,1,140,313.55a80.35,80.35,0,0,1,7.61-13.91A49.46,49.46,0,0,1,158.53,288a36,36,0,0,1,14.68-6.61,40.56,40.56,0,0,1,8.08-.73,51.57,51.57,0,0,1,8,.83l-.55,2.76a50.75,50.75,0,0,0-7.56-1,38.26,38.26,0,0,0-7.56.52,33.61,33.61,0,0,0-13.88,5.89A47.36,47.36,0,0,0,149,300.66a79.18,79.18,0,0,0-7.76,13.47,146,146,0,0,0-9.54,29.77A212.64,212.64,0,0,0,127.35,375Z" fill="#363f56"/><polygon points="158.37 388.49 167.82 394.3 193.62 388.49 185.64 372.5 170.63 341.43 153.59 329.37 145.21 363.43 158.37 388.49" fill="#363f56"/><polygon points="158.37 388.49 167.82 394.3 193.62 388.49 185.64 372.5 170.63 341.43 153.59 329.37 145.21 363.43 158.37 388.49" opacity="0.2"/><path d="M240.81,401.09l-32.29-11.63,3-14.47,12.06-23.23L239,350.68s-.44,5.15,1.08,9S240.81,401.09,240.81,401.09Z" fill="#363f56"/><path d="M240.81,401.09l-32.29-11.63,3-14.47,12.06-23.23L239,350.68s-.44,5.15,1.08,9S240.81,401.09,240.81,401.09Z" opacity="0.2"/><path d="M180.29,377v8.66l-9.65,1.85s-1.13,22.4,28.07,23.45a37,37,0,0,0,8.85-.71c7.25-1.51,19.77-6,15-18.26,0,0-5.28-3.33-10.94-3l.58-4.8L207.6,377Z" fill="#f9b499"/><path d="M180.29,377v5.67s23,28.3,31.3,6.32l.58-4.8L207.6,377Z" fill="#f7a48b"/><circle cx="173.79" cy="481.69" r="1.9" opacity="0.2"/><ellipse cx="199.24" cy="337.28" rx="36.09" ry="50.22" fill="#f9b499"/><ellipse cx="161.31" cy="345.74" rx="7.16" ry="9.15" transform="translate(-102.24 69.89) rotate(-18.68)" fill="#f9b499"/><path d="M157.32,343.93s4.28-2.85,8,0c0,0-4.32,5.15-2.16,7.83" fill="none" stroke="#f7a48b" stroke-miterlimit="10"/><path d="M201.81,292.72c-3.71,8.23-16.7,33.58-40.5,45.55,0,0-27.1,15.46,1.35,50.43,0,0-10,1.78-25.32,11.93,0,0-14-43.29,11.65-90.91,0,0,14.09-32.48,40.07-26.82,0,0,8.13.61,11.56,4.93C201.79,289.3,202.58,291,201.81,292.72Z" fill="#363f56"/><path d="M185,282.42s10.33-17,20.32-9.33c0,0,11.32-12.65,37.29,7.33,0,0,23.31,9.14,28.3,63.51l7,70.68s-19.46-9.49-37.05-13.52a.85.85,0,0,1-.42-.22c-1.3-1.2-8.85-8.87-7.4-22.89,0,0,2.11-18.23,2.37-23.12,0,0,5.95-64.83-33.55-62.14C201.81,292.72,204.93,284.08,185,282.42Z" fill="#363f56"/><path d="M201.81,292.72s11-11.55,23.52-5.78a19.6,19.6,0,0,1,10.59,13.24c1.66,6.61,1.92,18.26-.59,37.1C235.33,337.28,234.65,289.69,201.81,292.72Z" opacity="0.2"/><path d="M222.53,285.93a17.21,17.21,0,0,1,8.75,3.1,26,26,0,0,1,6.57,6.73c3.5,5.28,5.33,11.44,6.47,17.57.21,1.55.55,3.08.65,4.66s.2,3.16.15,4.7c0,3.11,0,6.23-.09,9.34l-.18,9.33c-.1,3.1-.16,6.21-.29,9.32-.13-3.11-.18-6.22-.28-9.33l-.15-9.32c-.07-3.11,0-6.22-.07-9.32,0-1.57-.09-3.09-.2-4.61s-.47-3.05-.68-4.57a47.94,47.94,0,0,0-6.07-17.28A25.42,25.42,0,0,0,231,289.5,17.51,17.51,0,0,0,222.53,285.93Z" opacity="0.2"/><path d="M242.23,359.67a39.4,39.4,0,0,0-.41,4.71,43.35,43.35,0,0,0,0,4.7,44.69,44.69,0,0,0,1.42,9.22,34,34,0,0,0,3.55,8.59c.41.66.79,1.35,1.22,2l1.42,1.86c.24.31.45.65.71.94l.81.86c.54.57,1.07,1.16,1.6,1.75a27.8,27.8,0,0,1-6.52-6.94l-.68-1-.56-1.07c-.36-.71-.78-1.4-1.09-2.15l-.88-2.24c-.29-.75-.47-1.54-.7-2.3a36.47,36.47,0,0,1-1.2-9.51A34.79,34.79,0,0,1,242.23,359.67Z" opacity="0.2"/><path d="M248.89,320.71A93.79,93.79,0,0,1,254,339.82a112.78,112.78,0,0,1,1.51,19.77,126.46,126.46,0,0,0,.63,19.66,53.2,53.2,0,0,0,1.91,9.62,21.68,21.68,0,0,0,1.87,4.51,9.77,9.77,0,0,0,3.27,3.58,9.44,9.44,0,0,1-3.54-3.42,22.59,22.59,0,0,1-2.15-4.49,53.75,53.75,0,0,1-2.25-9.68,116.12,116.12,0,0,1-.9-19.8c.08-3.28,0-6.56-.21-9.83s-.57-6.54-1-9.79-1-6.49-1.72-9.7A98.46,98.46,0,0,0,248.89,320.71Z" opacity="0.2"/><path d="M239.23,285.93s8.41,7,15.65,28.6a78.81,78.81,0,0,1,3.66,17.65c1.44,15.13,5.06,48.55,9.66,55.31C268.2,387.49,270.38,300.8,239.23,285.93Z" opacity="0.2"/><path d="M150.45,306.79s7.72-8.89,13.7-11.28a2,2,0,0,1,2.6,2.47c-1.73,5.24-3.27,14.28,14.29-1.89a5.31,5.31,0,0,1,4.25-1.42,3.28,3.28,0,0,1,2.29,1.21,1.9,1.9,0,0,0,3-.07c3.08-4,6.87-11.47-5.62-13.39C185,282.42,166.55,278.55,150.45,306.79Z" opacity="0.2"/><path d="M189,283.08s8.65-15.57,19-6.66c0,0,6.12-4.84,8.32-2a2.34,2.34,0,0,1,0,2.78c-1.56,2.18-5.84,7.3-14.4,12.21C201.81,289.37,196.28,282.75,189,283.08Z" opacity="0.2"/><path d="M167.11,316.32c-1.37.28-3.17,1.21-4.81,3.86a14.19,14.19,0,0,1-2.91,3.41c-3.76,3.17-11.33,10.33-6.73,13.12,0,0,3.9,1.7,22-13,0,0,10.32-9.12,11-15.34a2.62,2.62,0,0,0-3.59-2.72c-2.05.82-5.35,3-10.46,8.29A8.4,8.4,0,0,1,167.11,316.32Z" opacity="0.2"/><path d="M151.22,318.31c-1.13,2.26-2.17,4.56-3.09,6.91-.48,1.17-.92,2.35-1.38,3.52l-1.24,3.57a105.72,105.72,0,0,0-3.73,14.61c-.53,2.46-.81,5-1.15,7.45-.12,1.25-.19,2.51-.29,3.76l-.13,1.88,0,1.89c0,1.25-.07,2.51-.07,3.77l.19,3.77c0,.63,0,1.27.09,1.89l.21,1.88c.15,1.26.29,2.51.41,3.77a69.49,69.49,0,0,1-1.73-15.09l0-1.91.11-1.9c.08-1.27.13-2.55.24-3.81.31-2.53.55-5.06,1-7.56a94.2,94.2,0,0,1,4-14.69A76.68,76.68,0,0,1,151.22,318.31Z" opacity="0.2"/><path d="M145.45,356.67a12,12,0,0,1,.46,2.59l.21,2.6c.14,1.73.27,3.45.48,5.15a43.15,43.15,0,0,0,.81,5.07A24.33,24.33,0,0,0,149,377a14.19,14.19,0,0,1-2.46-4.66,25.54,25.54,0,0,1-1.09-5.18,38.43,38.43,0,0,1-.22-5.25c0-.88.06-1.75.12-2.62A17.4,17.4,0,0,0,145.45,356.67Z" opacity="0.2"/><path d="M163.15,379.65a27.33,27.33,0,0,1-5-7,41.66,41.66,0,0,1-3.17-8.13,46.43,46.43,0,0,1-1.44-8.59c-.15-1.44-.1-2.9-.15-4.34s.14-2.89.27-4.33c.2,2.89.35,5.75.77,8.58.11.7.22,1.41.31,2.12s.27,1.4.41,2.1c.23,1.4.62,2.77.95,4.16a59.09,59.09,0,0,0,2.85,8,36.86,36.86,0,0,0,1.92,3.82A31.3,31.3,0,0,0,163.15,379.65Z" opacity="0.2"/><path d="M163.15,337.28s23.55-11.62,38.66-44.56c0,0,28.61-7.81,33.52,44.56,0,0,1.4,32.76-23.16,46.89,0,0,23.75-27.5,18.13-57.46A26.7,26.7,0,0,0,215,307.14a62.75,62.75,0,0,0-15.79-4.5S188,327.53,163.15,337.28Z" fill="#f7a48b"/><path d="M221,463.29a165,165,0,0,1-8.6,17.64A14.17,14.17,0,0,1,200.18,488c-5.55,0-12.36.52-12.56,2.88,0,0-2.66,5.31-17.26,16.43a24.76,24.76,0,0,0-9.72,16.28c-.84,6.33.66,13.24,10,15.57,0,0,9.28,2.75,13,10.44-40.63-2.4-50.12-21.77-50.12-21.77-31.41,16.31-41.73,2.44-45.07-7,6.35-1.52,18.18-2.68,25.89,6.68,0,0,54.4-23.59,61.33-30.62,0,0,10.27-6,9.26-10.68l30-17.55Z" opacity="0.2"/><path d="M150,439.61c-4.61,7.55-20.54,34.75-24,54.92,0,0,3.22,1.11,19.43-6.27,0,0,13.89-11.56,17.7-8.47l7.48-4.58,3.16,2.67,4.91-4a2.47,2.47,0,0,0,.69-3c-1.31-2.86-3.18-9.28.64-18a47.49,47.49,0,0,0,.26-8.32,6.41,6.41,0,0,1,2.83-4.49l8.49-6.83,3.67-16.32s.83-3.49,2.83-3.66c0,0-12.16,0-13.16,11.49,0,0-2,9.49-6,14.15a10.1,10.1,0,0,0-3.83,11.32s-.16,26.31-16.31,26.14c0,0-10.48-2.16-11.41-14.19a21.72,21.72,0,0,1,1-7.93A69,69,0,0,0,151.1,440,.61.61,0,0,0,150,439.61Z" opacity="0.2"/><path d="M270.15,445.5l-3.61,3.74c-9.2,3.84-12.81,3-12.81,3l-1.18-6.66c-9-3.7-11.2-7-11.2-7h0a2,2,0,0,1-2.34,2.08c-7.6-1.31-7.6-7.07-7.6-7.07l-4.16-2.17,2.57-11.26h0l1.57-6.89h-14.1c2.06-4.27,10.08-7.82,10.08-7.82,10.52-5.47,11.84-.23,11.84-.23,4-3.84,12.15,1.54,15.76,4.3A7.39,7.39,0,0,1,257.5,413l7.11,20.1c1.1,8.46,4.82,11.69,5.53,12.24A.12.12,0,0,1,270.15,445.5Z" fill="#f9b499"/><path d="M217.31,413.28h8.27c2.12,0,5.22,2.66,4.75,4.72l.15-.69,14.68-13.1s-1.35-2.18-5.93,1a2.43,2.43,0,0,0-1.95-1.93s-6.62,6.78-10.12,7c0,0-5,1.52-5.23-1.75C221.93,408.55,218.45,410.65,217.31,413.28Z" fill="#f7a48b"/><path d="M239.67,440.77c-8.26-1.09-8.26-7.17-8.26-7.17l-4.16-2.17,2.57-11.26h0l4.17-.38,11.37-9.49-9.06,12.31s-2.16,13,3.64,17.44A.4.4,0,0,1,239.67,440.77Z" fill="#f7a48b"/><path d="M251.88,414.61l-8.15,7.31a4.81,4.81,0,0,0-1.61,3.5c0,3.11.31,8.64,3.26,10.17,0,0,3.34.5,1.26-4.16,0,0-.25-9,4.58-5.82,0,0,2,2.69,2.51,10,0,0-.71,14.46,13.12,5.31a11.39,11.39,0,0,0,3.28,4.39.12.12,0,0,1,0,.19l-3.61,3.74s-6.14,3.84-12.81,3l-1.18-6.66s-7.91-2.67-11.2-7c0,0-2.84-8.79-1.63-14.95a4.78,4.78,0,0,1,2.27-3.16Z" fill="#f7a48b"/><path d="M245.16,436.67a8.68,8.68,0,0,1-3.48-1.87,9,9,0,0,1-2.35-3.29,10.84,10.84,0,0,1-.73-4,19.4,19.4,0,0,1,.15-2l.41-2,0,.12a5,5,0,0,1,2.69-3.7c1.18-.76,2.34-1.54,3.52-2.28l3.57-2.23c1.21-.7,2.4-1.44,3.63-2.12-1.08.9-2.21,1.74-3.31,2.61l-3.38,2.51c-1.13.84-2.28,1.64-3.43,2.45a5.15,5.15,0,0,0-1.44,1.24,3.31,3.31,0,0,0-.69,1.57v.13l-.41,1.85c-.06.63-.17,1.25-.19,1.87a11.72,11.72,0,0,0,.46,3.69A9.46,9.46,0,0,0,245.16,436.67Z" fill="#f4937d"/><path d="M198.11,413.28s-2.1.39-2.83,3.66l-6.9,26.94s-.09,7.34,6.68,10.05l25-8.6,6.91-8.66,3.27-18.12a4.42,4.42,0,0,0-3.49-5.17l-.11,0Z" fill="#363f56"/><path d="M196.49,479.45h14.25a4,4,0,0,0,3.58-2.25L221,463.29l-6.08,5.36Z" fill="#363f56"/><circle cx="202.83" cy="420.02" r="2.11" fill="#fff"/><circle cx="200.63" cy="426.05" r="2.11" fill="#fff"/><ellipse cx="209.88" cy="438.94" rx="4.12" ry="3.09" transform="translate(-271.54 509.27) rotate(-72.76)" opacity="0.2"/><path d="M239,597.5l16.2,3,5.37,3.54L254,620l-22.53-3.7S241.53,611.24,239,597.5Z" fill="#f9b499"/><path d="M303.66,621.23s-1.86,9.08-13.45,14.1a10,10,0,0,1-7.19.26c-11-3.65-44.37-15.07-33.51-16.34l2.43.4s-7.1-4-4.58-8.91L251,603.5s.62-2,5-1.38c0,0-3.63-4.24,1.49-4.62l42.71,5,.33,0,.14,0C302.34,603,307.92,605.43,303.66,621.23Z" fill="#da5553"/><path d="M300.5,602.54l-.33,0A1.51,1.51,0,0,1,300.5,602.54Z" fill="none" stroke="#3c4150" stroke-miterlimit="10"/><path d="M306.31,635.59c-9.83,8.12-23.29,0-23.29,0a10,10,0,0,0,7.19-.26c11.59-5,13.45-14.1,13.45-14.1,4.26-15.8-1.32-18.28-3-18.67,8.88,1.35,12.27,10.92,12.27,10.92C316.89,624.73,306.31,635.59,306.31,635.59Z" fill="#363f56"/><ellipse cx="235.19" cy="346.42" rx="9.27" ry="5.05" transform="translate(-137.76 536.76) rotate(-82.86)" fill="#f7a48b"/><path d="M233,343a2.08,2.08,0,0,1,1.41-.88,2.64,2.64,0,0,1,1.74.33,3.27,3.27,0,0,1,1.17,1.23,3.44,3.44,0,0,1,.42,1.57,14.78,14.78,0,0,1-1.13-1,6.47,6.47,0,0,0-1-.78A3.82,3.82,0,0,0,233,343Z" fill="#f4937d"/><path d="M235.19,351.76a3.1,3.1,0,0,1-1.32-.89,4.69,4.69,0,0,1-.85-1.34,4,4,0,0,1,0-3.11c.25.49.41.95.59,1.39s.34.86.52,1.28C234.44,350,234.81,350.75,235.19,351.76Z" fill="#f4937d"/><path d="M225.58,459.24l-10.66,9.41L185,486.2c-6.14-1.25-11.16-8.32-11.16-8.32l4.8-3.94a2.49,2.49,0,0,0,.68-3.07c-4.47-8.49.76-18,.76-18l.26-8.33a5.14,5.14,0,0,1,1.58-3.22,11.94,11.94,0,0,1,1.26-1.27l7.44-6-2.19,9.78a11.57,11.57,0,0,0,2.52,6.87,10.86,10.86,0,0,0,4.16,3.18l25-8.6,6.91-8.66C234.11,453.25,225.58,459.24,225.58,459.24Z" fill="#f9b499"/><path d="M190.9,450.75c-3.53-.43-4.39-6.26-4.39-6.26.41-5-4.64-3.13-4.64-3.13a11.94,11.94,0,0,1,1.26-1.27l7.44-6-2.19,9.78A11.57,11.57,0,0,0,190.9,450.75Z" fill="#f7a48b"/><path d="M178.76,483.05A14.55,14.55,0,0,0,185,486.2l30-17.55S186.93,482.76,178.76,483.05Z" fill="#f7a48b"/><path d="M220.08,445.33s4.66,6.37,2.65,16.43l2.85-2.52s8.74-5.16,1.41-22.57Z" fill="#f7a48b"/><path d="M212.17,456.6q2.06-1.73,4.23-3.24c.72-.53,1.46-1,2.19-1.52s1.49-.95,2.16-1.46a18.48,18.48,0,0,0,3.63-3.6c.52-.68,1-1.42,1.47-2.17s1-1.47,1.53-2.18a34.36,34.36,0,0,1-2.25,4.86,14.57,14.57,0,0,1-3.69,4c-1.51,1.06-3,1.91-4.55,2.81S213.79,455.83,212.17,456.6Z" fill="#f4937d"/><path d="M215.08,461.76q1.8-1.44,3.71-2.7c1.26-.85,2.56-1.65,3.81-2.47l.46-.3a.81.81,0,0,0,.26-.26c.19-.27.37-.61.56-.93l1.12-2c.74-1.32,1.54-2.63,2.38-3.91a37.11,37.11,0,0,1-1.56,4.32c-.29.71-.63,1.39-1,2.09-.18.35-.36.68-.59,1a2.63,2.63,0,0,1-.24.31,2.17,2.17,0,0,1-.29.24l-.49.34A50.33,50.33,0,0,1,215.08,461.76Z" fill="#f4937d"/><path d="M231.41,413.28a24,24,0,0,1,3.49-4.43,24.4,24.4,0,0,1,4.33-3.62,24,24,0,0,1-3.49,4.43A24.4,24.4,0,0,1,231.41,413.28Z" fill="#f4937d"/><path d="M246.64,409.25c-1.82,1.83-3.72,3.57-5.64,5.28s-3.87,3.39-5.83,5.05l-.75.61a5,5,0,0,0-.62.6,4.64,4.64,0,0,0-.85,1.48,5.86,5.86,0,0,0-.32,1.75q-.09,1-.21,1.92l-.44,3.83c-.19,1.28-.34,2.55-.57,3.83,0-1.29,0-2.58,0-3.87l.12-3.86c0-.64,0-1.28.08-1.92a7.13,7.13,0,0,1,.29-2,5.75,5.75,0,0,1,1-1.86,6.64,6.64,0,0,1,.75-.75l.74-.62c2-1.63,4-3.27,6-4.83S244.51,410.72,246.64,409.25Z" fill="#f4937d"/><path d="M775.39,419.38a17.67,17.67,0,0,0-10.67-1.4,29.08,29.08,0,0,1-3.15,0c-2.51-.16-5.63-.74-5.93-2.6,0,0-.89-35.67-2.8-43.37,0,0-8.23-10.84-13.3-12.94,0,0,3.2,12.48,5.63,28.9.32,2.15.62,4.37.9,6.63.46,3.68.86,7.48,1.17,11.34l2.27,32.52s-32,4.54-38.64,6.81c0,0-18.88,1.91-31-.44-4.66-.91-8.33-2.46-9.55-5,0,0-3.5-7-3-18.53l-.45-12-.42-10.75s-13.54,18.26-26.85,14.05a14.84,14.84,0,0,1-4.11-2.07,28.66,28.66,0,0,1-6.35-4.47c-2.28-2.16-2.92-3.52-5.12-5.26a18.4,18.4,0,0,0-6.16-3.16,7.4,7.4,0,0,1-3.49-6.81c.14-1.72,1.08-3.62,3.49-5.55l7.64-10.78s29.72,4.2,29.46-11.85l-2.37-32.09s-1.07-15.78,19.2-18l6.82,5.14,27.86-8s23.61-.5,28.68,3.87a199.65,199.65,0,0,1,38.12,39.87,25.37,25.37,0,0,1,2.07,4.56c1.12,3.73,2.4,10.38,3,22l2.1,30.76S783.61,419.57,775.39,419.38Z" fill="#da5553"/><path d="M757.33,386a20,20,0,0,1,0-18.2c-7.79-5.2-14.62-13.33-14.62-13.33-8.94-16-9.76-16.41-9.76-16.41,1,13.49,1.63,18.05,1.63,18.05,2,8.48,6.48,24.9,8.46,32.06-43.1,4.39-71.23-35.66-71.23-35.66-9.31-19.3-12.8-13.69-12.8-13.69l-2.46,43.49c2.1,26.74-16.93,30.31-16.93,30.31,13.31,4.21,26.85-14.05,26.85-14.05l.42,10.75,9,13.33c3.5,11.22,35,22.6,35,22.6,6.65-2.27,38.64-6.81,38.64-6.81l-2.27-32.52c-.3-3.87-.72-7.67-1.18-11.36v0c-.07-.6-.15-1.19-.23-1.77,0-.3-.07-.59-.11-.88-.18-1.35-.37-2.68-.56-4-2.43-16.41-5.63-28.9-5.63-28.9,5.07,2.1,13.3,12.94,13.3,12.94,1.91,7.7,2.8,43.37,2.8,43.37.3,1.86,3.42,2.44,5.93,2.6h0C758.66,412.21,757.33,386,757.33,386Z" opacity="0.3"/><path d="M677.6,301.13V311l10.6,10.53,9.74-9.12L696.85,299l-1.1.53-1.85-7-1.44-.13S681.28,302.19,677.6,301.13Z" fill="#f9b499"/><path d="M677.6,301.13v5.81s11.52-3.29,16.72-12.79l-.42-1.61-1.44-.13S681.28,302.19,677.6,301.13Z" fill="#f7a48b"/><path d="M667.1,334s11.67-13.3,21.31-11.51c0,0,8.76-1.88,11.55.95L709,334s4.44-30.34-11.65-29.41l.63,7.75-9.74,9.12L677.6,311V307.8S667.47,309.12,667.1,334Z" fill="#363f56"/><path d="M804.53,621.63c-2.86,3.52-7.6,5.78-12.4,7.23A69.09,69.09,0,0,1,776,631.43c-6.71-6.45-25.91-56.5-40.08-95.2a.51.51,0,0,1,0-.11c-9.12-24.91-16.17-45.1-16.44-45.88V626.9a5.67,5.67,0,0,1-4.15,5.5c-8.58,2.28-18.08,1.25-24.2.11-.71-.14-1.37-.27-2-.41a5.73,5.73,0,0,1-4.51-5.45l-4.56-175-.17-6.81c12.13,2.35,31,.44,31,.44,6.65-2.27,38.64-6.81,38.64-6.81,6.45,3.89,10,31.22,11.34,45.08.49,4.83.72,8,.72,8C765.38,519.17,804.53,621.63,804.53,621.63Z" fill="#363f56"/><path d="M719.44,490.21V575.3c-10.25-56.57-9.36-115.37-9.36-115.37Z" opacity="0.3"/><path d="M792.14,628.85h0A69.09,69.09,0,0,1,776,631.43c-6.71-6.45-25.91-56.5-40.08-95.2C737.65,539.62,774.39,612,792.14,628.85Z" opacity="0.3"/><path d="M760.85,483.53c-6.69-3.5-13.37-12.49-16.62-17.32a23.42,23.42,0,0,0-6.35-6.47C719.32,447.4,691.1,450,680,451.63l-.17-6.81c12.13,2.35,31,.44,31,.44,6.65-2.27,38.64-6.81,38.64-6.81C756,442.34,759.47,469.67,760.85,483.53Z" opacity="0.3"/><path d="M798.62,453a19.57,19.57,0,0,1-.43,4.15,20.26,20.26,0,0,1-1.56,4.7,20.8,20.8,0,0,1-30.23,8.52L578,346.69l8.16-22,23.24,12.68,178.38,97.39A20.82,20.82,0,0,1,798.62,453Z" fill="#363f56"/><path d="M797.87,457a20,20,0,0,1-1.56,4.7,20.79,20.79,0,0,1-30.23,8.52l-188.4-123.7,8.16-22,23.24,12.69s-.86,16.87,18.85,30.33l143.44,93.29A28.36,28.36,0,0,0,797.87,457Z" fill="#fff" opacity="0.3"/><path d="M462.78,119.77A144.68,144.68,0,1,0,607.46,264.45,144.67,144.67,0,0,0,462.78,119.77Zm-.18,265.54A120.65,120.65,0,1,1,583.25,264.66,120.65,120.65,0,0,1,462.6,385.31Z" fill="#363f56"/><circle cx="462.78" cy="264.45" r="120.65" fill="#fff" opacity="0.47"/><path d="M540.82,188c-66.87-60.81-147.31,1.05-147.31,1.05s54.93-31.79,113.33-5.11a84.71,84.71,0,0,1,37.63,33.65c11.16,18.75,23,49.74,17.39,92.1C561.86,309.72,589.41,232.22,540.82,188Z" fill="#fff" opacity="0.47"/><path d="M720.36,654l-58.72,1.22c-2.19-14,10.62-12.87,10.62-12.87,8.66-.93,13.35-3.15,15.86-5.25a8.2,8.2,0,0,0,2.81-3.86c0-.1.05-.18.08-.27a2,2,0,0,0,.06-.27c0-.12,0-.19,0-.19,6.12,1.14,15.62,2.17,24.2-.11,3.73,3.73,4.75,11.88,5,17C720.43,652.12,720.36,654,720.36,654Z" fill="#da5553"/><path d="M720.3,649.43c-13.2,1.76-32.18-12.33-32.18-12.33a6.83,6.83,0,0,0,2.81-3.86c0-.1.05-.18.08-.27s0-.19.06-.27,0-.19,0-.19c6.12,1.14,15.62,2.17,24.2-.11C719,636.13,720,644.28,720.3,649.43Z" opacity="0.3"/><path d="M790.55,651.67c-18.78,2.56-15.83-8.31-14.52-11.6.22-.58.39-.92.39-.92a19.39,19.39,0,0,0,2.48-7.72c16.07-2.07,19.27-4.95,19.27-4.95l5.27,11.6a15.25,15.25,0,0,1,1,3.1C806.59,651.67,790.55,651.67,790.55,651.67Z" fill="#da5553"/><path d="M790.55,651.67c-18.78,2.56-15.83-8.31-14.52-11.6a90.09,90.09,0,0,0,28.45,1.11C806.59,651.67,790.55,651.67,790.55,651.67Z" opacity="0.3"/><ellipse cx="678.63" cy="277.51" rx="25.07" ry="18.94" transform="translate(249.96 872.32) rotate(-76.46)" fill="#f9b499"/><path d="M714.69,277.52a28.93,28.93,0,0,1-4.07,9.33h0a37.34,37.34,0,0,1-14.87,12.69c-1.58-2.88-2.84-13.69-2.84-13.69-4-2.51-.85-8.34-.85-8.34,1.59-5.48,0-9,0-9a16.36,16.36,0,0,1-9.46-3.95c-3.16-4.47-8.42,0-8.42,0a8.3,8.3,0,0,1-3.45,1.89c-5.14,1.16-7.86-6.09-7.86-6.09-5.52-13.42,9.72-16.32,9.72-16.32-2.12,5.22,4.55,2.78,8.24,1.11a22,22,0,0,1,6.56-1.84c25.64-2.9,24.93,26.77,24.93,26.77a4.48,4.48,0,0,1,2,2.84A14.25,14.25,0,0,1,714.69,277.52Z" fill="#363f56"/><path d="M672.6,244.05a3.48,3.48,0,0,0-.17,2.52,9.5,9.5,0,0,0,1,2.29c.45.74.94,1.48,1.46,2.23a27,27,0,0,1,1.51,2.38,10.29,10.29,0,0,1-4.27-3.85,6.32,6.32,0,0,1-.89-2.91A2.81,2.81,0,0,1,672.6,244.05Z" opacity="0.2"/><path d="M685,248.76a14.5,14.5,0,0,1,5.49.76,15,15,0,0,1,4.93,2.74,15.42,15.42,0,0,1,2,2.05,13.52,13.52,0,0,1,1.44,2.46A12.9,12.9,0,0,1,700,262.2a24.57,24.57,0,0,0-2.19-4.88,14.54,14.54,0,0,0-3.36-3.92A24.53,24.53,0,0,0,685,248.76Z" opacity="0.2"/><path d="M710.62,286.85h0a37.34,37.34,0,0,1-14.87,12.69c-1.58-2.88-2.84-13.69-2.84-13.69-4-2.51-.85-8.34-.85-8.34,1.59-5.48,0-9,0-9a16.36,16.36,0,0,1-9.46-3.95c-3.16-4.47-8.42,0-8.42,0a8.3,8.3,0,0,1-3.45,1.89c.1,0-.81-3.27.51-6.09a.73.73,0,0,1,1.18-.19c1,.93,3.1,2.24,7.36,1.39a6.7,6.7,0,0,1,7.06,3,.93.93,0,0,1,0,.1,4.45,4.45,0,0,0,4.4,2,4.11,4.11,0,0,1,4.31,2.8c.52,1.63.66,4.16-.11,8.08,0,0-2.46,5.73,3.5,2.75,0,0,5.26-2.82,6.32,2.62C705.31,282.89,705.59,288,710.62,286.85Z" opacity="0.2"/><path d="M714.28,272.93A30.41,30.41,0,0,1,708,276c4.34-3.92,4.36-6,4.36-6A4.48,4.48,0,0,1,714.28,272.93Z" opacity="0.2"/><ellipse cx="696.89" cy="288.39" rx="6.99" ry="4.71" transform="matrix(0.53, -0.85, 0.85, 0.53, 80.58, 723.11)" fill="#f9b499"/><path d="M623.9,376.83l-6,8.48-5.4-7.45-2.82-3.9c-8-1.16-12.91-10.93-12.91-10.93a72.41,72.41,0,0,0-7.15-10.59.93.93,0,0,1,.77-1.5c3.26.25,7.61,4.72,7.61,4.72V340.49a1.67,1.67,0,0,1,2.27-1.56l1.59.61V337a1.67,1.67,0,0,1,3.33,0v5.12a1,1,0,0,0,1,1h.05a1,1,0,0,0,.92-1l-.19-5.06a1.7,1.7,0,1,1,3.4.12l-.53,8.32v.06a1,1,0,0,0,1,1,1,1,0,0,0,1-1l-.11-4v-.07a1.42,1.42,0,0,1,1.4-1.43,1.39,1.39,0,0,1,1.39,1.32l-.06,15.5a16,16,0,0,0,1.94,7.82c2.82,5.11,5.61,9.31,6.87,11.14Z" fill="#f9b499"/><path d="M601.84,339.54a30.41,30.41,0,0,1,.75,7.14,29.92,29.92,0,0,1-.75,7.15,30.44,30.44,0,0,1-.75-7.15A31,31,0,0,1,601.84,339.54Z" fill="#f7a48b"/><path d="M606.19,343.08a13.63,13.63,0,0,1,.75,4.67,13.41,13.41,0,0,1-.75,4.68,13.18,13.18,0,0,1-.75-4.68A13.39,13.39,0,0,1,606.19,343.08Z" fill="#f7a48b"/><path d="M610.78,346.51a5.82,5.82,0,0,1,.75,3,5.65,5.65,0,0,1-.75,3,5.75,5.75,0,0,1-.75-3A5.82,5.82,0,0,1,610.78,346.51Z" fill="#f7a48b"/><path d="M592.1,351.4s5.65,6,6.32,10.63l-.44-6.36A20.22,20.22,0,0,0,592.1,351.4Z" fill="#f7a48b"/><path d="M623.9,376.83l-6,8.48-5.4-7.45a37.6,37.6,0,0,0,10.71-2Z" fill="#f7a48b"/><path d="M775.39,419.38l0,2.05-.26,13.86c0,5.61-7.71,12.45-7.71,12.45-2.45,1.93-4.38.87-4.38.87-2.81.36-2.64-1.4-2.64-1.4-4.2-1.76,3.54-15.31,3.54-15.31C765.58,425.16,758,421,758,421c-7-5.9-2.35-5.58-2.35-5.58.3,1.86,3.42,2.44,5.93,2.6a29.08,29.08,0,0,0,3.15,0A17.67,17.67,0,0,1,775.39,419.38Z" fill="#f9b499"/><path d="M775.39,419.38l0,2.05a20.88,20.88,0,0,0-6.11-.12,4.31,4.31,0,0,0-3.47,5.34c1,4-1.87,5.25-1.87,5.25C765.58,425.16,758,421,758,421c-7-5.9-2.35-5.58-2.35-5.58.3,1.86,3.42,2.44,5.93,2.6a29.08,29.08,0,0,0,3.15,0A17.67,17.67,0,0,1,775.39,419.38Z" fill="#f7a48b"/><path d="M760.36,447.21a19.46,19.46,0,0,1,2.44-5.14,19,19,0,0,1,3.71-4.33,21.77,21.77,0,0,1-6.15,9.47Z" fill="#f7a48b"/><path d="M763,448.61a17.55,17.55,0,0,1,2.26-4.88,17.16,17.16,0,0,1,3.53-4.06,19.35,19.35,0,0,1-5.79,8.94Z" fill="#f7a48b"/></svg>