<?xml version="1.0" encoding="iso-8859-1"?>
<!-- Generator: Adobe Illustrator 19.0.0, SVG Export Plug-In . SVG Version: 6.00 Build 0)  -->
<svg version="1.1" id="Layer_1" xmlns="http://www.w3.org/2000/svg" xmlns:xlink="http://www.w3.org/1999/xlink" x="0px" y="0px"
	 viewBox="0 0 480.001 480.001" style="enable-background:new 0 0 480.001 480.001;" xml:space="preserve">
<g>
	<g>
		<g>
			<path d="M417.509,131.585l-18.353-49.222l6.311-8.507c3.291-4.436,2.362-10.699-2.073-13.989L325.354,1.97
				c-4.435-3.291-10.699-2.364-13.989,2.073L108.733,277.149l-23.369,30.066c-1.651,2.124-2.377,4.825-2.013,7.491
				c0.364,2.666,1.788,5.073,3.949,6.676l31.675,23.507l-26.184,35.322c-3.289,4.436-2.358,10.7,2.078,13.989
				c1.79,1.327,3.878,1.967,5.947,1.967c3.06,0,6.079-1.399,8.041-4.045l26.178-35.313l30.904,22.935
				c1.79,1.329,3.88,1.97,5.951,1.97c3.048,0,6.058-1.388,8.021-4.018l22.854-30.606c0.003-0.004,0.005-0.008,0.009-0.013
				c0.003-0.004,0.007-0.008,0.01-0.012l182.167-245.552l11.921,31.971L305.388,256.75c-3.291,4.435-2.364,10.698,2.07,13.99
				c1.792,1.329,3.881,1.97,5.952,1.97c3.058,0,6.076-1.397,8.038-4.041l94.721-127.63
				C418.188,138.318,418.693,134.76,417.509,131.585z M169.852,357.74l-62.422-46.325l11.17-14.371l62.14,46.115L169.852,357.74z
				 M192.68,327.115l-61.985-46.001l132.817-179.01l61.209,47.027L192.68,327.115z M336.638,133.066L275.43,86.04l46.038-62.049
				l61.978,45.98L336.638,133.066z"/>
			<path d="M363.434,411.411H71.862c-5.522,0-10,4.477-10,10s4.478,10,10,10h291.572c5.522,0,10-4.477,10-10
				S368.957,411.411,363.434,411.411z"/>
			<path d="M290.545,460.001H144.751c-5.523,0-10,4.477-10,10s4.477,10,10,10h145.795c5.522,0,10-4.477,10-10
				C300.545,464.478,296.068,460.001,290.545,460.001z"/>
		</g>
	</g>
</g>
<g>
</g>
<g>
</g>
<g>
</g>
<g>
</g>
<g>
</g>
<g>
</g>
<g>
</g>
<g>
</g>
<g>
</g>
<g>
</g>
<g>
</g>
<g>
</g>
<g>
</g>
<g>
</g>
<g>
</g>
</svg>
