<?xml version="1.0" encoding="iso-8859-1"?>
<!-- Generator: Adobe Illustrator 19.0.0, SVG Export Plug-In . SVG Version: 6.00 Build 0)  -->
<svg version="1.1" id="Layer_1" xmlns="http://www.w3.org/2000/svg" xmlns:xlink="http://www.w3.org/1999/xlink" x="0px" y="0px"
	 viewBox="0 0 512 512" style="enable-background:new 0 0 512 512;" xml:space="preserve">
<g>
	<g>
		<path d="M470.326,0C468.094,0,75.2,0,65.488,0C42.509,0,23.814,18.695,23.814,41.674v428.651
			c0,22.979,18.695,41.674,41.674,41.674c4.289,0,396.245,0,404.837,0c9.864,0,17.86-7.997,17.86-17.86c0-9.768,0-467.604,0-476.279
			C488.186,7.997,480.189,0,470.326,0z M381.023,476.279H65.488c-3.283,0-5.953-2.671-5.953-5.953V41.674
			c0-3.283,2.671-5.953,5.953-5.953h315.535C381.023,45.291,381.023,468.425,381.023,476.279z M452.465,476.279h-35.721V353.637
			h35.721V476.279z M452.465,316.726h-35.721V194.084h35.721V316.726z M452.465,158.363h-35.721V35.721h35.721V158.363z"/>
	</g>
</g>
<g>
	<g>
		<path d="M338.982,332.187l-19.62-33.983c-10.558-18.287-33.877-28.561-61.174-12.801l-41.299-71.532
			c27.165-15.683,30.045-41.118,19.5-59.38l-19.619-33.981c-11.515-19.945-36.979-26.774-56.928-15.255l-19.714,11.383
			c-42.242,24.388-56.693,78.309-32.302,120.555l75.634,131.003c24.378,42.226,78.294,56.702,120.556,32.302l19.714-11.382
			C343.629,377.625,350.472,352.087,338.982,332.187z M305.868,358.18l-19.714,11.382c-25.138,14.512-57.237,5.925-71.76-19.227
			l-75.634-131.003c-14.517-25.145-5.919-57.242,19.227-71.76l19.714-11.382c2.843-1.642,6.492-0.663,8.134,2.179l19.62,33.982
			c1.641,2.843,0.663,6.492-2.179,8.133l-19.714,11.382c-8.536,4.927-11.469,15.857-6.537,24.397l59.16,102.468
			c4.932,8.542,15.853,11.47,24.397,6.537l19.714-11.382c2.843-1.64,6.49-0.664,8.132,2.179l19.62,33.983
			C309.689,352.891,308.711,356.539,305.868,358.18z"/>
	</g>
</g>
<g>
</g>
<g>
</g>
<g>
</g>
<g>
</g>
<g>
</g>
<g>
</g>
<g>
</g>
<g>
</g>
<g>
</g>
<g>
</g>
<g>
</g>
<g>
</g>
<g>
</g>
<g>
</g>
<g>
</g>
</svg>
